# xmcd CD database file
#
# Track frame offsets:
#	150
#	15160
#	27262
#	39252
#	53435
#	68517
#	80732
#	91225
#	104287
#	118827
#	131665
#	145390
#	158142
#	171407
#	183660
#	198137
#	213435
#	229180
#	245020
#	257082
#
# Disc length: 3581 seconds
#
# Revision: 0
# Processed by: cddbd v1.4PL0 Copyright (c) Steve Scherf et al.
# Submitted via: CDex 1.50Beta6
#
DISCID=0e0dfb14
DTITLE=Celia Cruz - Irresistible
DYEAR=1995
DGENRE=Salsa
TTITLE0=Tu voz
TTITLE1=El yerberito moderno
TTITLE2=Burundanga
TTITLE3=Lágrimas negras
TTITLE4=Guantanamera
TTITLE5=Secuéstrame
TTITLE6=Alguien
TTITLE7=El pescador
TTITLE8=Canoero
TTITLE9=La Bikina
TTITLE10=Comencé a adorarte
TTITLE11=Su majestad la rumba
TTITLE12=Panquelero
TTITLE13=La jaibera
TTITLE14=Pitipitin tintero
TTITLE15=Ven Bernabé - Lamento Jarocho
TTITLE16=Pulpa de tamarindo
TTITLE17=La campeona
TTITLE18=Angelitos negros
TTITLE19=Mi lindo Bohio
EXTD=YEAR: 1995
EXTT0=
EXTT1=
EXTT2=
EXTT3=
EXTT4=
EXTT5=
EXTT6=
EXTT7=
EXTT8=
EXTT9=
EXTT10=
EXTT11=
EXTT12=
EXTT13=
EXTT14=
EXTT15=
EXTT16=
EXTT17=
EXTT18=
EXTT19=
PLAYORDER=
